<?xml version="1.0" encoding="UTF-8" standalone="no"?>
<svg
   xmlns:dc="http://purl.org/dc/elements/1.1/"
   xmlns:cc="http://creativecommons.org/ns#"
   xmlns:rdf="http://www.w3.org/1999/02/22-rdf-syntax-ns#"
   xmlns:svg="http://www.w3.org/2000/svg"
   xmlns="http://www.w3.org/2000/svg"
   viewBox="0 0 793.70667 1122.52"
   height="1122.52"
   width="793.70667"
   xml:space="preserve"
   id="svg2"
   version="1.1"><metadata
     id="metadata8"><rdf:RDF><cc:Work
         rdf:about=""><dc:format>image/svg+xml</dc:format><dc:type
           rdf:resource="http://purl.org/dc/dcmitype/StillImage" /></cc:Work></rdf:RDF></metadata><defs
     id="defs6"><clipPath
       id="clipPath18"
       clipPathUnits="userSpaceOnUse"><path
         id="path16"
         d="M 0,841.89 H 595.28 V 0 H 0 Z" /></clipPath></defs><g
     transform="matrix(1.3333333,0,0,-1.3333333,0,1122.52)"
     id="g10"><g
       id="g12"><g
         clip-path="url(#clipPath18)"
         id="g14"><g
           transform="translate(191.1777,480.2222)"
           id="g20"><path
             id="path22"
             style="fill:#211715;fill-opacity:1;fill-rule:evenodd;stroke:none"
             d="m 0,0 c -0.263,-1.417 -0.438,-2.352 -0.609,-3.286 -0.071,-0.387 -0.093,-0.912 -0.553,-0.931 -0.523,-0.021 -0.73,0.462 -0.805,0.947 -0.253,1.64 -0.424,3.291 -0.312,4.948 0.061,0.905 -0.191,1.635 -0.669,2.393 -5.109,8.104 -10.482,16.052 -14.647,24.717 -5.372,11.173 -8.805,22.773 -9.017,35.329 -0.375,22.139 9.815,38.888 26.14,52.618 5.742,4.828 12.106,8.756 18.868,12.016 0.478,0.23 0.884,0.499 1.232,0.888 12.303,13.767 27.495,23.045 44.744,29.352 9.915,3.625 20.037,5.689 30.547,6.153 7.25,0.32 14.486,0.585 21.724,-0.287 9.373,-1.129 18.215,-4.083 26.865,-7.7 10.924,-4.569 20.405,-11.359 29.144,-19.233 3.692,-3.325 7.934,-5.741 12.268,-8.055 8.801,-4.698 17.903,-8.879 26.199,-14.457 13.928,-9.365 27.012,-19.743 37.711,-32.833 12.261,-15.001 19.729,-32.145 23.077,-51.189 1.757,-9.985 2.624,-19.98 2.44,-30.141 -0.349,-19.248 -7.949,-35.274 -21.017,-48.935 -9.303,-9.724 -19.717,-18.065 -31.014,-25.485 -12.511,-8.22 -25.657,-15.329 -38.343,-23.221 -9.233,-5.744 -18.076,-11.997 -25.555,-19.986 -0.429,-0.457 -0.822,-0.949 -1.217,-1.436 -0.06,-0.075 -0.044,-0.214 -0.078,-0.406 6.633,0.999 13.294,1.263 19.955,1.49 24.475,0.836 46.637,-5.598 65.625,-21.423 7.93,-6.608 14.113,-14.85 17.483,-24.578 5.05,-14.578 3.96,-28.819 -5.322,-41.692 -7.149,-9.915 -16.428,-17.432 -27.489,-22.6 -14.582,-6.812 -29.809,-11.719 -45.729,-14.215 -16.567,-2.598 -33.24,-3.568 -50.018,-2.86 -14.963,0.63 -29.837,1.755 -44.42,5.475 -14.984,3.827 -28.77,10.199 -41.34,19.168 -5.231,3.734 -9.84,8.19 -13.62,13.403 -0.944,1.302 -1.845,1.505 -3.256,1.33 -6.631,-0.82 -13.296,-1.25 -19.964,-1.631 -11.429,-0.652 -22.837,-0.026 -34.233,0.738 -12.17,0.817 -24.116,3 -35.701,6.825 -12.748,4.208 -24.189,10.755 -33.619,20.41 -6.749,6.908 -10.437,15.119 -9.564,25.066 0.53,6.045 3.042,11.297 6.036,16.378 4.662,7.91 10.65,14.822 16.652,21.711 4.777,5.485 8.975,11.331 12.378,17.799 3.225,6.13 2.568,16.413 -4.426,21.685 -2.459,1.854 -4.788,3.886 -6.968,6.074 -2.587,2.597 -2.234,4.753 1.053,6.426 8.102,4.122 19.504,2.533 26.398,-3.825 4.381,-4.041 8.131,-8.577 9.023,-14.745 0.703,-4.859 0.122,-9.665 -1.035,-14.423 -1.447,-5.95 -4.596,-11.147 -7.214,-16.581 -2.596,-5.39 -5.518,-10.632 -7.474,-16.311 -1.537,-4.467 -2.584,-9.073 -1.728,-13.782 1.304,-7.175 6.73,-12.224 14.426,-13.392 14.03,-2.127 27.49,-0.1 40.364,5.916 8.215,3.84 15.941,8.636 24.26,12.269 3.605,1.575 7.197,3.172 11.018,4.17 0.606,0.158 1.109,0.354 1.372,1.086 6.112,17.006 13.834,33.375 20.044,50.338 3.321,9.071 3.305,18.123 -1.769,26.734 -2.848,4.833 -6.049,9.425 -9.898,13.511 -7.946,8.439 -15.99,16.787 -23.962,25.203 C 9.438,-11.77 4.603,-6.3 0,0" /></g><g
           transform="translate(343.4316,603.2559)"
           id="g24"><path
             id="path26"
             style="fill:#874a8a;fill-opacity:1;fill-rule:evenodd;stroke:none"
             d="M 0,0 C 5.415,-0.333 10.744,-1.195 16.003,-2.545 11.183,0.24 5.838,0.743 0.436,0.999 -2.236,1.234 -4.907,1.25 -7.578,0.993 -17.04,0.762 -25.579,-1.916 -33.107,-7.902 c -5.614,-4.464 -8.635,-10.226 -10.065,-17.059 -0.612,-2.933 -1.389,-5.83 -2.028,-8.756 -0.498,-2.276 -1.824,-3.849 -4.027,-4.428 -7.339,-1.928 -11.42,-7.423 -15.134,-13.43 -4.45,-7.196 -6.6,-15.293 -9.273,-23.185 -1.129,-3.336 -2.223,-6.674 -3.885,-9.797 -2.739,-5.149 -6.735,-8.414 -12.734,-9.078 -4.753,-0.526 -9.417,-0.564 -13.993,1.006 -2.629,0.901 -4.746,2.474 -6.186,4.873 -0.618,1.029 -1.089,2.131 -0.829,3.692 0.62,-1.542 1.106,-2.851 2.049,-3.939 2.001,-2.311 4.607,-3.239 7.538,-3.538 9.858,-1.005 16.467,2.624 20.868,11.499 2.705,5.457 4.305,11.259 5.423,17.223 1.416,7.551 3.85,14.763 7.394,21.593 0.313,0.603 0.717,0.958 1.335,1.215 1.527,0.634 3.028,1.33 4.531,2.019 1.177,0.54 1.886,1.435 2.025,2.751 0.328,3.098 0.048,6.149 -0.41,9.188 l -0.438,-0.006 c -0.114,-2.576 -0.379,-5.157 -0.293,-7.727 0.065,-1.93 -0.719,-2.949 -2.402,-3.625 -6.401,-2.57 -12.799,-5.147 -19.167,-7.798 -9.603,-4 -18.824,-8.758 -27.613,-14.329 -2.642,-1.673 -5.425,-1.515 -8.245,-0.914 -1.495,0.318 -2.973,0.836 -4.377,1.45 -5.938,2.594 -12.197,3.166 -18.573,3.148 -3.512,-0.01 -6.887,2.434 -8.12,5.767 0.751,0.18 1.145,-0.401 1.605,-0.789 2.234,-1.887 4.646,-2.445 7.691,-2.433 6.336,0.027 12.832,0.32 18.782,-2.741 1.446,-0.743 2.989,-0.586 4.467,0.118 7.399,3.529 14.404,7.684 20.672,13.011 0.523,0.444 1.013,0.923 1.494,1.411 1.764,1.789 1.819,2.089 0.79,4.169 2.96,0.797 5.947,1.487 8.853,2.491 4.758,1.644 9.355,3.588 13.496,6.518 1.331,0.942 1.966,2.012 1.905,3.698 -0.149,4.108 -0.716,8.167 -1.274,12.225 -0.196,1.417 -0.454,2.711 0.988,3.636 0.33,0.211 0.216,0.618 0.249,0.95 4.762,4.547 9.736,8.788 15.98,11.234 1.922,0.752 3.894,1.107 5.855,0.382 6.229,-2.303 12.425,-1.339 18.521,0.33 8.092,2.216 16.276,3.515 24.666,3.466 C -1.121,7.567 2.75,7.722 6.62,7.11 14.547,5.86 21.733,2.66 28.594,-1.259 c 12.777,-7.3 24.621,-15.962 35.72,-25.607 14.868,-12.919 27.256,-27.986 36.938,-45.092 7.988,-14.111 13.115,-29.343 15.492,-45.477 1.03,-6.998 0.938,-13.993 0.902,-21.006 -0.007,-1.52 -0.163,-3.077 -0.753,-4.532 -0.173,-0.426 -0.291,-0.87 -0.065,-1.322 -3.656,-8.882 -8.609,-16.956 -15.137,-24.021 -10.559,-11.432 -22.748,-20.811 -35.832,-29.219 -10.234,-6.576 -20.88,-12.419 -31.259,-18.726 -10.368,-6.298 -20.409,-12.989 -28.829,-21.843 -0.062,-0.066 -0.206,-0.056 -0.312,-0.082 -0.727,0.309 -0.697,0.977 -0.736,1.594 -0.776,11.942 -4.215,23.193 -9.213,33.957 -2.469,5.319 -5.618,10.299 -9.748,14.588 -0.94,0.979 -2.038,1.36 -3.19,1.799 -0.06,0.996 0.748,0.808 1.278,0.864 10.5,1.125 20.664,3.691 30.631,7.108 8.124,2.784 15.64,6.719 22.271,12.189 10.503,8.661 16.929,19.779 19.295,33.173 1.022,5.789 1.571,11.646 1.431,17.543 -0.019,0.775 0.223,1.897 -0.559,2.176 -0.88,0.315 -1.219,-0.841 -1.648,-1.438 -4.728,-6.575 -10.902,-11.625 -17.201,-16.577 -9.32,-7.325 -19.699,-12.591 -30.948,-16.177 -5.013,-1.598 -10.165,-2.525 -15.436,-2.945 -5.151,-0.411 -10.295,-0.627 -15.336,0.492 -9.394,2.083 -18.033,5.843 -25.035,12.666 -2.743,2.674 -4.894,5.868 -6.993,9.075 -1.133,1.73 -1.259,1.696 -2.896,0.534 -6.872,-4.877 -14.311,-8.16 -22.882,-8.721 -7.504,-0.492 -14.949,-0.535 -22.277,1.333 -4.832,1.231 -9.456,3.053 -13.731,5.661 -2.847,1.736 -5.177,4.104 -7.578,6.381 -0.518,0.49 -0.888,1.208 -1.735,1.3 -0.405,-0.702 -0.067,-1.358 0.084,-2 1.944,-8.249 6.357,-15.183 11.408,-21.834 8.043,-10.591 18.064,-18.799 29.597,-25.284 2.385,-1.342 4.72,-2.783 7.06,-4.21 0.627,-0.383 1.33,-0.684 1.678,-1.404 0.084,-1.137 -0.877,-1.352 -1.591,-1.729 -5.86,-3.089 -11.15,-6.942 -15.777,-11.692 -1.135,-1.1 -2.036,-2.392 -3.009,-3.628 -0.343,-0.434 -0.515,-1.204 -1.362,-0.947 0.297,8.11 -3.005,14.935 -7.524,21.363 -3.293,4.685 -7.075,8.934 -11.017,13.073 -9.092,9.544 -18.462,18.832 -27.075,28.824 -2.419,2.806 -4.638,5.785 -6.958,8.676 -0.332,0.413 -0.63,0.779 -0.401,1.373 1.311,3.404 2.47,6.891 5.124,9.569 1.831,1.847 2.823,1.704 4.076,-0.524 2.722,-4.841 3.028,-10.073 2.5,-15.439 -0.056,-0.566 -0.17,-1.126 -0.24,-1.69 -0.051,-0.411 -0.46,-0.962 0.208,-1.16 0.528,-0.157 0.771,0.381 1.029,0.743 3.781,5.316 4.338,11.174 2.617,17.275 -1.033,3.661 -1.74,7.306 -1.423,11.118 0.094,1.134 0.295,2.224 0.919,3.5 1.629,-3.363 3.762,-6.139 5.929,-8.905 5.088,-6.501 11.383,-11.571 18.386,-15.836 4.503,-2.743 9.318,-4.679 14.495,-5.708 1.129,-0.225 2.265,-0.19 3.403,-0.172 1.648,-0.237 3.297,-0.236 4.945,0 10.666,-0.213 20.058,8.044 21.225,18.53 1.014,9.114 -0.982,17.436 -6.295,24.915 -0.746,1.051 -0.764,1.819 -0.236,2.992 1.061,2.355 1.843,4.836 2.816,7.468 3.152,-4.515 6.01,-8.947 8.627,-13.529 1.945,-3.404 3.826,-6.845 5.648,-10.316 0.65,-1.239 1.225,-0.721 1.744,-0.07 1.89,2.377 3.672,4.84 5.594,7.19 1.718,2.1 3.63,4.041 5.338,6.149 2.377,2.933 5.236,5.388 7.809,8.122 3.039,3.23 6.467,6.002 9.827,8.87 4.582,3.91 9.456,7.42 14.505,10.658 6.52,4.181 13.166,8.168 19.916,11.976 5.303,2.991 10.576,6.027 16.192,8.409 0.835,0.355 1.723,0.585 2.55,0.955 0.301,0.134 0.915,0.161 0.75,0.732 -0.112,0.394 -0.505,0.554 -0.939,0.609 -4.37,0.547 -8.691,0.305 -13.022,-0.505 -10.636,-1.99 -20.63,-5.798 -30.279,-10.568 -7.698,-3.805 -15.459,-7.496 -23.055,-12.02 0.033,2.22 1.018,4.017 1.479,5.922 1.737,7.176 3.304,14.372 4.294,21.702 0.851,6.295 1.659,12.574 1.28,18.938 -0.067,1.139 0.678,1.71 1.34,2.218 5.252,4.037 10.962,7.139 17.637,8.055 2.701,0.37 5.425,0.579 8.139,0.862 C -4.542,0.173 -2.271,0.183 0,0" /></g><g
           transform="translate(460.2598,458.9604)"
           id="g28"><path
             id="path30"
             style="fill:#b983b7;fill-opacity:1;fill-rule:evenodd;stroke:none"
             d="m 0,0 c -0.727,1.23 0.041,2.453 0.131,3.644 0.428,5.753 0.416,11.484 -0.033,17.235 -0.551,7.048 -1.995,13.923 -3.729,20.751 -1.826,7.197 -4.635,14.037 -7.523,20.855 -4.938,11.658 -12.117,21.912 -19.939,31.729 -5.182,6.504 -10.632,12.817 -16.732,18.495 -6.839,6.366 -14.142,12.19 -21.747,17.615 -8.024,5.724 -16.125,11.341 -25.097,15.553 -7.618,3.578 -15.51,5.675 -24.031,5.646 -9.911,-0.033 -19.573,-1.275 -29.14,-3.887 -5.547,-1.514 -11.244,-2.184 -16.942,-0.062 -3.98,1.482 -7.36,-0.672 -10.584,-2.557 -3.489,-2.041 -6.702,-4.527 -9.556,-7.419 -0.54,-0.548 -1.255,-0.737 -1.797,-1.223 -0.084,-0.576 -0.54,-0.845 -0.954,-1.139 -3.723,-2.645 -7.183,-5.601 -10.344,-8.892 -4.92,-5.122 -8.982,-10.878 -12.419,-17.084 -0.424,-0.765 -0.694,-1.556 -0.634,-2.44 1.728,-0.679 1.852,-1.964 0.305,-3.608 -2.235,-2.374 -4.839,-4.323 -7.461,-6.227 -4.992,-3.627 -10.406,-6.548 -15.961,-9.21 -1.461,-0.7 -3,-0.713 -4.452,0.009 -3.801,1.891 -7.863,2.633 -12.048,2.621 -2.89,-0.008 -5.767,0.42 -8.67,0.064 -2.428,-0.298 -4.152,1.287 -5.921,2.626 -0.451,0.342 -0.858,0.74 -1.286,1.113 -1.066,1.589 -1.056,3.459 -1.311,5.243 -1.328,9.301 0.363,18.141 4.214,26.625 0.514,1.132 0.751,2.391 1.543,3.396 2.796,1.769 5.688,3.318 8.862,4.342 3.448,1.114 6.971,1.765 10.57,1.952 3.111,0.161 5.574,1.392 7.479,3.861 4.319,5.601 8.52,11.306 13.676,16.201 6.377,6.053 12.792,12.058 20.605,16.302 9.097,4.942 18.54,8.773 29.011,9.647 5.861,0.489 11.741,0.988 17.587,0.532 8.11,-0.633 16.272,-1.157 24.137,-3.558 0.227,-0.069 0.447,-0.065 0.668,0.012 7.925,-3.384 15.699,-7.026 22.486,-12.48 3.825,-3.073 7.691,-6.089 11.385,-9.327 4.069,-3.566 8.974,-5.828 13.709,-8.342 10.07,-5.347 20.378,-10.295 29.55,-17.18 10.325,-7.752 20.414,-15.763 28.909,-25.599 C -10.344,90.62 -2.092,73.13 1.452,53.35 3.178,43.727 4.533,34.088 4.095,24.283 3.791,17.499 3.238,10.736 1.418,4.153 1.027,2.746 0.477,1.383 0,0" /></g><g
           transform="translate(248.8418,378.0771)"
           id="g32"><path
             id="path34"
             style="fill:#b983b7;fill-opacity:1;fill-rule:evenodd;stroke:none"
             d="m 0,0 c 2.145,0.646 4.38,0.701 6.577,0.845 12.76,0.834 25.338,0.044 37.323,-4.933 16.047,-6.663 30.18,-16.048 41.475,-29.431 1.377,-1.632 2.096,-3.189 1.816,-5.521 -0.572,-4.799 0.267,-9.553 1.694,-14.168 0.233,-0.758 0.205,-1.402 0.04,-2.151 -2.813,-12.722 -10.732,-21.326 -21.833,-27.508 -10.207,-5.685 -21.119,-8.728 -32.742,-9.413 -11.925,-0.704 -23.731,-0.123 -35.213,3.484 -7.363,2.315 -14.493,5.179 -20.699,9.936 -0.394,1.781 0.072,3.521 0.279,5.269 1.285,10.844 4.506,21.07 9.777,30.647 3.008,5.464 6.666,10.507 10.092,15.701 1.553,2.351 2.612,4.911 2.538,7.691 -0.062,2.276 0.006,4.577 -0.26,6.832 C 0.467,-9.354 0.633,-5.991 0.591,-2.628 0.579,-1.694 0.488,-0.812 0,0" /></g><g
           transform="translate(325.9316,417.1719)"
           id="g36"><path
             id="path38"
             style="fill:#b983b7;fill-opacity:1;fill-rule:evenodd;stroke:none"
             d="m 0,0 c 1.359,0.047 2.392,-0.332 3.414,-1.436 5.789,-6.244 9.805,-13.523 12.815,-21.404 2.722,-7.128 4.741,-14.461 5.963,-21.996 0.39,-2.4 0.519,-4.844 0.767,-7.266 -2.378,-2.914 -4.572,-5.955 -6.662,-9.084 -2.525,-3.777 -4.404,-7.823 -5.64,-12.451 -2.075,2.607 -4.077,4.927 -6.261,7.078 -14.031,13.821 -30.311,23.727 -49.625,28.227 -7.277,1.695 -14.707,1.769 -22.139,1.452 -3.015,-0.128 -6.023,-0.358 -9.01,-0.811 -0.379,1.691 -0.175,3.396 -0.101,5.093 0.375,8.53 1.017,17.037 2.251,25.493 0.216,1.477 -0.283,2.574 -1.811,3.043 -0.38,0.115 -0.765,0.238 -1.028,0.57 3.599,4.107 8.032,7.163 12.588,10.087 1.611,1.033 3.548,1.526 4.897,2.98 0.489,0.179 0.907,-0.036 1.284,-0.289 6.546,-4.375 12.588,-9.278 16.851,-16.052 1.236,-1.964 1.807,-4.177 2.472,-6.363 0.391,-1.279 0.703,-1.379 1.504,-0.343 5.905,7.637 14.332,10.38 23.302,12.07 4.095,0.771 8.239,1.214 12.374,1.709 C -1.178,0.38 -0.536,0.466 0,0" /></g><g
           transform="translate(227.3193,297.5586)"
           id="g40"><path
             id="path42"
             style="fill:#b983b7;fill-opacity:1;fill-rule:evenodd;stroke:none"
             d="m 0,0 c 9.271,-6.131 19.431,-10.17 30.374,-11.809 16.665,-2.494 33.227,-2.298 49.246,3.87 5.609,2.159 10.847,5.044 15.768,8.521 7.489,5.291 12.74,12.168 15.258,21.047 0.259,0.914 0.558,1.818 0.841,2.732 0.174,-0.058 0.333,-0.06 0.375,-0.131 2.587,-4.468 6.776,-6.109 11.618,-6.353 1.736,-0.088 3.035,-0.782 4.32,-1.754 7.703,-5.818 12.094,-13.515 13.066,-23.127 1.164,-11.51 -1.099,-22.123 -8.304,-31.426 -2.192,-0.976 -4.506,-0.578 -6.739,-0.418 -6.933,0.493 -13.855,1.127 -20.767,1.905 -12.652,1.423 -25.199,3.418 -37.63,6.189 -6.619,1.476 -13.117,3.483 -19.882,4.34 -7.686,0.973 -15.315,1.212 -22.965,-0.35 -5.154,-1.052 -9.676,-3.316 -13.843,-6.431 -0.74,-0.553 -1.444,-1.416 -2.574,-0.811 -1.847,1.321 -3.455,2.908 -5.06,4.501 -2.862,6.228 -3.273,12.919 -3.639,19.605 -0.143,2.605 -0.04,5.226 -0.012,7.839 C -0.542,-1.339 -0.65,-0.561 0,0" /></g><g
           transform="translate(361.9219,259.833)"
           id="g44"><path
             id="path46"
             style="fill:#b983b7;fill-opacity:1;fill-rule:evenodd;stroke:none"
             d="M 0,0 C 5.455,7.536 7.727,16.088 7.793,25.255 7.877,37.03 3.979,47.06 -5.595,54.444 c -0.306,0.237 -0.601,0.49 -1.225,0.998 3.864,-0.01 7.352,0.174 10.822,0.688 4.85,0.716 9.703,1.514 14.584,1.887 14.332,1.097 26.812,-2.973 35.694,-14.713 6.189,-8.18 8.738,-17.725 7.531,-28.082 -0.06,-0.511 -0.094,-1.024 -0.139,-1.535 C 61.053,12.401 60.006,11.573 58.816,10.833 50.219,5.479 40.652,2.93 30.814,1.245 23.105,-0.073 15.336,-0.854 7.5,-0.886 5.453,-0.896 3.416,-1.388 1.357,-1.165 0.699,-1.093 -0.302,-1.259 0,0" /></g><g
           transform="translate(235.481,263.5527)"
           id="g48"><path
             id="path50"
             style="fill:#874a8a;fill-opacity:1;fill-rule:evenodd;stroke:none"
             d="M 0,0 C 1.178,-0.072 1.83,0.861 2.609,1.458 7.564,5.254 13.152,7.389 19.312,8.27 30.498,9.87 41.372,8.236 52.184,5.471 60.207,3.418 68.308,1.684 76.488,0.383 c 6.269,-0.998 12.558,-1.9 18.859,-2.672 5.069,-0.621 10.17,-0.967 15.252,-1.47 4.591,-0.454 9.184,-0.798 13.801,-0.665 -7.062,-10.338 -16.301,-17.74 -28.549,-20.996 -3.141,-0.836 -6.361,-0.916 -9.641,-0.726 -4.889,0.282 -9.788,0.439 -14.673,0.81 C 45.76,-23.382 21.746,-16.359 0.745,-0.688 0.476,-0.486 0.248,-0.23 0,0" /></g><g
           transform="translate(439.6094,334.3418)"
           id="g52"><path
             id="path54"
             style="fill:#874a8a;fill-opacity:1;fill-rule:evenodd;stroke:none"
             d="M 0,0 C -3.668,2.047 -7.324,4.004 -11.29,5.305 -18.961,7.82 -26.857,7.92 -34.805,7.467 -41.293,7.098 -47.607,5.824 -53.543,3.203 c -8.842,-3.902 -15.461,-10.182 -19.352,-19.15 -0.275,-0.637 -0.469,-1.233 -1.34,-1.34 -5.794,-0.714 -11.585,-0.99 -17.378,-0.016 -2.314,0.389 -4.352,1.334 -5.992,3.047 -1.992,2.077 -2.906,4.253 -2.216,7.369 2.698,12.204 9.497,21.192 20.442,27.074 5.022,2.698 10.074,5.323 15.672,6.743 4.98,1.261 9.861,0.507 14.732,-0.424 13.854,-2.654 26.661,-7.817 38.12,-16.145 C -6.779,7.398 -3.176,3.939 0,0" /></g><g
           transform="translate(387.6621,319.1523)"
           id="g56"><path
             id="path58"
             style="fill:#874a8a;fill-opacity:1;fill-rule:evenodd;stroke:none"
             d="m 0,0 c -6.354,0.286 -12.619,-0.576 -18.869,-1.521 -1.455,-0.221 -0.922,0.447 -0.664,1.078 1.907,4.658 5.185,8.283 8.821,11.627 6.017,5.537 13.38,8.148 21.251,9.453 9.07,1.504 18.178,1.577 27.17,-0.528 6.193,-1.449 11.69,-4.555 16.719,-8.36 2.276,-1.724 3.509,-4.47 4.915,-6.941 7.813,-13.723 7.88,-27.853 1.503,-41.992 -2.74,-6.071 -7.453,-10.868 -12.348,-15.394 -6.138,-5.676 -13.051,-10.13 -20.667,-13.521 -0.383,-0.17 -0.767,-0.532 -1.498,-0.251 6.05,6.369 10.083,13.665 11.045,22.438 1.065,1.998 2.895,3.354 4.278,5.096 7.588,9.556 9.258,20.328 5.626,31.654 C 44.273,2.225 35.238,9.746 23.687,9.801 15.424,9.84 7.883,7.841 1.219,2.851 0.854,2.577 0.51,2.275 0.156,1.986 -0.605,1.367 -0.848,0.734 0,0" /></g><g
           transform="translate(364.873,567.2446)"
           id="g60"><path
             id="path62"
             style="fill:#211d1b;fill-opacity:1;fill-rule:evenodd;stroke:none"
             d="m 0,0 c -2.303,-1.255 -4.314,-2.384 -6.355,-3.459 -11.288,-5.946 -22.29,-12.38 -32.844,-19.546 -6.02,-4.086 -11.637,-8.689 -17.009,-13.624 -7.569,-6.952 -14.359,-14.57 -20.608,-22.699 -1.314,-1.708 -1.619,-1.646 -2.635,0.215 -3.816,6.993 -7.741,13.924 -12.405,20.4 -0.83,1.151 -1.045,2.287 -0.59,3.673 1.44,4.376 2.746,8.795 4.668,12.999 0.832,1.821 1.22,1.961 2.827,0.71 1.523,-1.185 3.055,-2.357 4.555,-3.571 1.071,-0.866 1.715,-0.371 2.039,0.673 1.586,5.101 2.747,10.314 3.413,15.603 0.334,2.662 1.123,4.334 3.998,4.99 4.332,0.989 5.579,4.587 6.342,8.438 0.873,4.401 1.778,8.8 3.477,12.978 0.821,2.017 1.945,3.864 3.488,5.427 0.233,0.236 0.463,0.624 0.826,0.508 0.452,-0.143 0.411,-0.617 0.436,-1.018 0.191,-3.139 -0.151,-6.272 -0.472,-9.366 -0.581,-5.625 -1.438,-11.224 -2.565,-16.782 -1.186,-5.846 -2.457,-11.659 -4.275,-17.343 -0.139,-0.434 -0.319,-0.855 -0.44,-1.294 -0.17,-0.612 -0.344,-1.294 0.293,-1.713 0.522,-0.343 0.955,0.146 1.375,0.403 10.221,6.271 20.999,11.437 31.945,16.291 7.268,3.223 14.827,5.435 22.607,6.934 2.052,0.396 4.149,0.56 6.235,0.743 C -1.233,0.61 -0.76,0.271 0,0" /></g><g
           transform="translate(220.2764,345.0078)"
           id="g64"><path
             id="path66"
             style="fill:#874a8a;fill-opacity:1;fill-rule:evenodd;stroke:none"
             d="m 0,0 c -2.808,-7.354 -4.544,-14.809 -5.87,-22.403 -1.589,-9.109 -1.291,-18.118 0.312,-27.173 1.104,-6.241 3.048,-12.139 6.251,-17.61 0.48,-0.818 0.244,-1.114 -0.619,-1.188 -3.971,-0.343 -7.942,-0.698 -11.912,-1.046 -1.078,-0.095 -2.164,-0.129 -3.232,-0.284 -2.301,-0.337 -4.387,0.128 -6.348,1.386 -6.999,4.489 -13.011,9.876 -15.93,17.945 -1.905,5.269 -1.865,10.741 -1.134,16.213 1.056,7.905 4.943,14.459 9.941,20.467 1.754,2.107 4.3,2.965 6.587,4.201 6.875,3.714 13.841,7.242 21.383,9.457 C -0.469,-0.006 -0.354,-0.02 0,0" /></g><g
           transform="translate(156.9727,321.8887)"
           id="g68"><path
             id="path70"
             style="fill:#874a8a;fill-opacity:1;fill-rule:evenodd;stroke:none"
             d="m 0,0 c 1.989,0.633 4.064,0.285 6.099,0.518 8.368,0.961 16.232,3.464 23.745,7.189 0.802,0.398 1.614,0.775 2.512,1.064 -2.81,-3.837 -5.417,-7.854 -6.826,-12.303 -4.936,-15.595 -2.62,-28.386 10.319,-38.895 1.925,-1.563 3.906,-3.044 6.057,-4.365 -6.306,-0.249 -12.553,-0.339 -18.8,-0.062 -3.358,0.151 -6.717,0.322 -10.071,0.538 -3.296,0.211 -6.616,0.303 -9.873,0.796 -2.551,0.385 -4.801,1.723 -6.805,3.404 -5.86,4.914 -8.799,11.224 -8.94,18.831 -0.043,2.264 -0.397,4.558 0.313,6.794 0.565,0.507 1.266,0.455 1.945,0.456 1.197,0 2.383,0.066 3.572,0.242 2.479,0.368 2.482,0.338 2.841,2.844 0.322,2.254 0.559,4.527 1.335,6.687 0.84,2.34 2.036,4.447 4.059,5.932 C 1.273,-0.35 0.33,-0.149 0,0" /></g><g
           transform="translate(248.8418,378.0771)"
           id="g72"><path
             id="path74"
             style="fill:#efd7e7;fill-opacity:1;fill-rule:evenodd;stroke:none"
             d="M 0,0 C 0.719,-0.032 1.19,-0.273 1.095,-1.128 1.038,-1.636 1.088,-2.153 1.081,-2.666 c -0.079,-5.522 0.255,-11.029 0.552,-16.54 0.152,-2.828 -0.823,-5.477 -2.391,-7.879 -3.422,-5.244 -7.157,-10.291 -10.177,-15.791 -5.03,-9.164 -8.423,-18.871 -9.618,-29.305 -0.256,-2.236 -0.668,-4.454 -1.009,-6.679 -5.548,3.996 -9.814,8.946 -11.971,15.584 -0.722,2.223 -0.101,4.288 0.152,6.41 1.313,11.031 4.997,21.375 9.133,31.595 2.586,6.391 5.06,12.827 7.54,19.258 0.401,1.039 1.009,1.645 2.056,2.057 C -9.909,-2.097 -5.043,-0.731 0,0" /></g><g
           transform="translate(361.9219,259.833)"
           id="g76"><path
             id="path78"
             style="fill:#874a8a;fill-opacity:1;fill-rule:evenodd;stroke:none"
             d="m 0,0 c 0.201,-1.058 1.059,-0.716 1.653,-0.683 5.792,0.315 11.591,0.38 17.38,0.926 7.596,0.717 15.098,1.83 22.461,3.84 6.127,1.672 12.017,3.914 17.381,7.371 0.998,0.643 1.868,1.484 2.797,2.233 -1.228,-7.381 -4.674,-13.653 -9.738,-19.05 -2.143,-2.283 -4.559,-4.217 -7.653,-5.25 -9.78,-3.266 -19.517,-6.662 -29.726,-8.402 -6.793,-1.158 -13.62,-2.029 -20.483,-2.673 -7.443,-0.7 -14.896,-1.039 -22.406,-0.876 3.117,1.251 6.238,2.465 9.147,4.153 7.747,4.492 14.028,10.509 18.845,18.057 C -0.256,-0.218 -0.115,-0.117 0,0" /></g><g
           transform="translate(330.7363,637.7236)"
           id="g80"><path
             id="path82"
             style="fill:#efd7e7;fill-opacity:1;fill-rule:evenodd;stroke:none"
             d="M 0,0 C -1.037,-0.608 -1.99,0.084 -2.938,0.27 -8.237,1.307 -13.572,2 -18.945,2.549 c -4.719,0.483 -9.426,0.612 -14.156,0.622 -17.697,0.037 -33.484,-5.655 -47.34,-16.413 -8.609,-6.684 -16.457,-14.315 -22.616,-23.395 -3.237,-4.775 -7.322,-6.978 -13.044,-7.227 -5.517,-0.24 -10.69,-2.094 -15.283,-5.324 -0.301,-0.211 -0.728,-1.165 -1.211,-0.103 5.556,11.516 13.163,21.438 22.89,29.762 15.06,12.888 32.54,20.978 51.845,24.452 15.775,2.839 31.806,3.261 47.505,-1.405 C -6.863,2.479 -3.449,1.179 0,0" /></g><g
           transform="translate(387.6621,319.1523)"
           id="g84"><path
             id="path86"
             style="fill:#b983b7;fill-opacity:1;fill-rule:evenodd;stroke:none"
             d="m 0,0 c -0.389,0.452 -1.006,0.102 -1.509,0.448 1.107,2.366 3.325,3.541 5.374,4.771 6.703,4.027 14.055,5.475 21.803,4.969 12.15,-0.796 21.462,-10.913 23.15,-20.889 2.218,-13.108 -1.312,-24.317 -11.44,-33.211 0.173,4.801 0.241,9.607 -1.062,14.283 C 31.777,-13.342 20.834,-3.14 3.573,-0.357 2.394,-0.167 1.191,-0.115 0,0" /></g><g
           transform="translate(194.2749,502.373)"
           id="g88"><path
             id="path90"
             style="fill:#874a8a;fill-opacity:1;fill-rule:evenodd;stroke:none"
             d="m 0,0 c -3.885,4.899 -6.566,10.1 -8.562,15.652 -3.241,9.014 -5.476,18.217 -5.022,27.913 0.467,9.995 3.903,18.896 9.702,26.958 0.199,0.277 0.435,0.531 0.681,0.768 0.106,0.102 0.281,0.132 0.478,0.218 C -3.767,65.32 -3.652,59.194 -2.645,53.083 -2.028,49.338 0.129,46.653 3.39,44.817 4.054,44.443 4.672,44.205 4.491,43.189 3.073,35.221 4.246,27.411 6.081,19.663 6.592,17.505 7.319,15.398 7.968,13.274 8.154,12.665 8.332,12.165 7.758,11.579 4.538,8.292 1.905,4.586 0,0" /></g><g
           transform="translate(143.2939,305.3906)"
           id="g92"><path
             id="path94"
             style="fill:#884a8b;fill-opacity:1;fill-rule:evenodd;stroke:none"
             d="m 0,0 c -0.348,-4.16 -0.125,-8.279 0.598,-12.398 1.112,-6.336 4.819,-10.938 9.611,-14.862 0.351,-0.287 0.732,-0.539 1.095,-0.812 0.037,-0.029 0.04,-0.102 0.104,-0.278 -5.159,0.647 -10.153,1.805 -15.138,2.999 -7.277,1.742 -14.265,4.247 -21.035,7.48 -4.785,2.286 -7.282,5.92 -8.202,10.976 -0.892,4.902 -0.906,9.716 0.81,14.454 0.728,0.425 1.336,-0.022 1.92,-0.325 7.23,-3.748 15.048,-5.238 23.042,-6.128 C -5.323,0.898 -3.428,0.955 -1.578,0.563 -1.027,0.447 -0.426,0.467 0,0" /></g><g
           transform="translate(251.979,476.0161)"
           id="g96"><path
             id="path98"
             style="fill:#211d1b;fill-opacity:1;fill-rule:evenodd;stroke:none"
             d="m 0,0 c -7.967,-0.027 -14.431,2.426 -20.552,6.034 -4.973,2.932 -9.546,6.427 -13.564,10.529 -3.893,3.975 -7.419,8.309 -9.986,13.324 -0.547,1.069 -0.573,1.94 0.135,3.002 1.21,1.813 2.526,3.506 4.135,4.975 0.768,0.701 1.297,0.78 1.782,-0.336 3.383,-7.783 7.985,-14.799 14.521,-20.219 6.938,-5.756 14.737,-10.126 24.15,-9.662 7.085,0.351 11.332,4.036 12.401,10.861 0.829,5.293 0.22,10.312 -2.397,15.026 -0.715,1.287 -0.596,2.322 0.579,3.294 1.283,1.062 2.132,2.506 3.081,3.853 1.012,1.436 1.207,1.428 2.242,-0.05 2.629,-3.754 4.102,-7.978 4.943,-12.427 0.97,-5.133 1.151,-10.26 -0.816,-15.243 C 18.08,6.437 13.248,2.445 6.525,0.77 4.169,0.182 1.727,-0.162 0,0" /></g><g
           transform="translate(90.8555,336.2402)"
           id="g100"><path
             id="path102"
             style="fill:#b983b7;fill-opacity:1;fill-rule:evenodd;stroke:none"
             d="m 0,0 c 2.119,5.83 7.072,7.894 12.496,8.73 6.002,0.926 12.064,0.633 17.956,-1.191 1.367,-0.422 2.679,-0.951 3.934,-1.646 1.94,-1.077 3.219,-2.42 3.375,-4.883 0.178,-2.822 1.549,-5.321 3.323,-7.74 -10.089,-1.421 -17.529,-6.354 -21.901,-15.548 -0.478,-0.41 -0.971,-0.27 -1.423,0.014 C 11.802,-18.523 5.887,-14.686 2.287,-8.373 0.84,-5.836 -0.578,-3.153 0,0" /></g><g
           transform="translate(195.7305,599.2529)"
           id="g104"><path
             id="path106"
             style="fill:#b983b7;fill-opacity:1;fill-rule:evenodd;stroke:none"
             d="M 0,0 C 3.775,2.817 7.779,5.253 12.372,7.641 10.132,4.334 8.149,1.454 6.215,-1.458 c -4.063,-6.12 -6.958,-12.79 -9.229,-19.748 -0.177,-0.541 -0.279,-1.092 -0.694,-1.532 -5.904,-6.257 -9.349,-13.795 -11.471,-22.022 -0.056,-0.22 -0.145,-0.432 -0.218,-0.648 -1.411,-6.055 -2.356,-12.186 -2.237,-18.408 0.193,-10.025 1.578,-19.889 4.488,-29.516 1.785,-5.909 3.785,-11.731 6.54,-17.271 0.257,-0.516 0.452,-1.048 0.455,-1.634 -0.025,-0.561 0.064,-1.152 -0.544,-1.705 -0.866,1.353 -1.703,2.683 -2.561,4 -4.107,6.305 -8.043,12.711 -11.454,19.425 -0.203,0.398 -0.338,0.829 -0.506,1.245 -1.532,4.504 -2.127,9.195 -2.686,13.885 -0.553,4.647 -0.695,9.293 -0.318,13.99 0.353,4.385 0.725,8.753 1.612,13.061 2.408,11.695 7.269,22.304 14.246,31.97 3.322,4.602 6.302,9.387 7.731,14.968 C -0.502,-0.892 -0.253,-0.446 0,0" /></g><g
           transform="translate(143.2939,305.3906)"
           id="g108"><path
             id="path110"
             style="fill:#b983b7;fill-opacity:1;fill-rule:evenodd;stroke:none"
             d="m 0,0 c -10.894,0.781 -21.687,1.988 -31.519,7.338 -0.195,0.105 -0.425,0.148 -0.639,0.22 0.373,2.217 1.683,3.952 3.046,5.61 4.5,5.473 10.235,8.781 17.322,9.635 0.749,0.09 1.466,0.16 2.082,-0.43 C -5.555,18.391 -0.354,17.176 5.15,16.762 6.43,16.665 7.708,16.543 9.288,16.408 4.691,12.519 2.202,7.67 0.599,2.295 0.373,1.537 0.198,0.766 0,0" /></g><g
           transform="translate(249.5889,484.8721)"
           id="g112"><path
             id="path114"
             style="fill:#ad2139;fill-opacity:1;fill-rule:evenodd;stroke:none"
             d="m 0,0 c -7.04,0.799 -13.129,3.88 -18.692,8.043 -7.214,5.399 -11.909,12.765 -15.736,20.771 -0.765,1.602 -0.729,2.756 1.058,3.576 0.926,0.424 1.79,1.018 2.606,1.634 1.102,0.832 1.341,0.307 1.601,-0.753 1.47,-5.992 3.843,-11.587 7.793,-16.385 2.67,-3.243 5.698,-6.064 9.925,-7.245 1.589,-0.443 3.178,-0.473 4.727,-0.145 3.359,0.708 4.538,2.623 3.763,5.989 -0.313,1.358 -0.226,1.967 1.397,1.435 1.24,-0.406 2.523,-0.406 3.852,-0.09 3.021,0.718 4.126,1.98 4.249,5.075 0.032,0.766 -0.413,1.796 0.356,2.251 1.155,0.682 2.464,1.128 3.748,1.554 0.548,0.182 0.697,-0.475 0.905,-0.856 1.546,-2.825 2.488,-5.846 2.892,-9.038 0.12,-1.345 0.129,-2.691 -0.007,-4.036 C 14.289,9.958 13.954,8.168 13.239,6.489 11.389,2.144 7.605,0.692 3.343,-0.007 2.229,-0.113 1.114,-0.125 0,0" /></g><g
           transform="translate(195.7305,599.2529)"
           id="g116"><path
             id="path118"
             style="fill:#efd7e7;fill-opacity:1;fill-rule:evenodd;stroke:none"
             d="m 0,0 c -0.585,-4.196 -2.325,-7.928 -4.557,-11.477 -4.03,-6.405 -8.766,-12.37 -11.822,-19.382 -3.59,-8.238 -6.196,-16.71 -6.964,-25.715 -0.339,-3.974 -0.755,-7.939 -0.611,-11.926 0.243,-6.715 1.224,-13.334 2.803,-19.865 0.078,-0.323 0.321,-0.629 -0.065,-0.907 -6.485,12.895 -9.495,26.464 -8.511,40.961 1.053,15.521 8.362,27.909 18.678,38.906 C -7.724,-5.859 -3.995,-2.768 0,0" /></g><g
           transform="translate(128.2754,341.9873)"
           id="g120"><path
             id="path122"
             style="fill:#b983b7;fill-opacity:1;fill-rule:evenodd;stroke:none"
             d="m 0,0 c -11.212,5.667 -22.345,6.44 -33.727,1.272 0.134,0.243 0.363,0.724 0.65,1.167 4.725,7.304 10.343,13.908 16.052,20.439 1.004,1.148 2.471,1.176 3.787,1.273 5.463,0.403 10.849,0.33 15.471,-3.322 C 5.672,18.112 5.688,18.144 3.961,14.231 2.089,9.989 0.592,5.64 0.219,0.972 0.188,0.584 0.048,0.204 0,0" /></g><g
           transform="translate(145.3096,385.2637)"
           id="g124"><path
             id="path126"
             style="fill:#b983b7;fill-opacity:1;fill-rule:evenodd;stroke:none"
             d="m 0,0 c -6.165,5.473 -10.77,6.288 -20.025,3.668 -0.049,2.053 -0.177,4.072 -0.478,6.082 -0.419,2.789 -1.277,5.439 -3.365,7.324 -2.317,2.09 -2.002,4.422 -1.224,6.867 1.221,3.837 4.119,5.838 8.132,6.254 3.713,0.384 6.679,-0.845 9.278,-3.377 C -3.441,22.688 0.2,18.221 0.884,12.045 1.327,8.043 0.777,4.113 0,0" /></g><g
           transform="translate(113.29,367.1738)"
           id="g128"><path
             id="path130"
             style="fill:#b983b7;fill-opacity:1;fill-rule:evenodd;stroke:none"
             d="m 0,0 c 3.693,4.732 7.125,9.35 9.625,14.574 0.564,1.18 1.266,2.359 1.504,3.613 0.317,1.668 1.352,2.363 2.739,2.909 5.526,2.172 12.832,0.69 16.692,-3.362 0.75,-0.787 0.946,-1.49 0.614,-2.588 -1.816,-6 -5.245,-11.245 -7.8,-16.896 C 22.811,-2.995 22.128,-4.186 21.551,-5.426 21.246,-6.08 20.998,-6.395 20.392,-5.686 15.177,0.414 7.967,0.803 0,0" /></g><g
           transform="translate(90.8555,336.2402)"
           id="g132"><path
             id="path134"
             style="fill:#874a8a;fill-opacity:1;fill-rule:evenodd;stroke:none"
             d="m 0,0 c 0.688,-6.346 3.919,-11.252 8.683,-15.273 2.902,-2.454 5.982,-4.664 9.238,-6.631 0.409,-0.246 0.783,-0.442 1.262,-0.374 -2.189,-7.333 -2.071,-14.566 1.213,-22.053 -2.781,1.507 -5.01,3.104 -7.173,4.794 C 7.399,-34.991 2.308,-29.766 -0.56,-22.846 -3.722,-15.215 -3.432,-7.535 0,0" /></g><g
           transform="translate(231.3574,525.2007)"
           id="g136"><path
             id="path138"
             style="fill:#d29f03;fill-opacity:1;fill-rule:evenodd;stroke:none"
             d="m 0,0 c -0.542,-2.489 -0.943,-4.687 -0.559,-6.893 0.769,-4.423 3.603,-7.128 7.631,-8.691 4.473,-1.737 9.145,-1.707 13.833,-1.323 0.911,0.074 1.912,0.795 2.681,-0.076 0.581,-0.658 -0.26,-3.819 -1.137,-4.39 -1.422,-0.924 -2.94,-1.601 -4.727,-1.049 -0.704,0.218 -1.448,0.302 -2.166,0.481 -1.88,0.466 -2.263,0.113 -1.701,-1.809 1.338,-4.582 0.05,-6.105 -4.855,-6.09 -3.095,0.01 -5.603,1.682 -7.823,3.649 -6.137,5.438 -9.325,12.534 -11.184,20.346 -0.11,0.464 -0.266,0.89 0.278,1.181 C -6.636,-3.014 -3.493,-1.472 0,0" /></g><g
           transform="translate(235.1646,528.1211)"
           id="g140"><path
             id="path142"
             style="fill:#dd807d;fill-opacity:1;fill-rule:evenodd;stroke:none"
             d="m 0,0 c -2.032,-0.869 -4.073,-1.717 -6.095,-2.609 -6.068,-2.675 -12.002,-5.64 -17.089,-9.941 -7.062,-5.971 -9.29,-13.582 -6.659,-22.433 1.486,-4.998 2.008,-9.918 0.371,-14.944 -0.158,-0.487 -0.342,-0.966 -0.532,-1.442 -0.059,-0.15 -0.175,-0.278 -0.467,-0.73 0,0.977 -0.022,1.651 0.004,2.324 0.175,4.617 -0.247,9.108 -2.523,13.268 -1.769,3.235 -3.699,3.567 -6.273,0.89 -2.721,-2.83 -4.029,-6.435 -5.272,-10.056 -0.146,-0.425 -0.139,-0.903 -0.59,-1.254 0.01,1.46 0.216,2.849 0.562,4.209 1.52,5.958 2.763,12.019 5.32,17.643 3.995,8.787 11.04,14.637 19.19,19.358 4.449,2.577 9.355,4.21 13.822,6.741 1.733,0.983 3.454,2.005 4.82,3.504 C 0.681,4.962 1.504,4.06 1.077,1.845 0.931,1.09 0.508,0.527 0,0" /></g><g
           transform="translate(248.8643,413.6797)"
           id="g144"><path
             id="path146"
             style="fill:#efd7e7;fill-opacity:1;fill-rule:evenodd;stroke:none"
             d="m 0,0 c 2.841,-0.063 3.782,-1.185 3.38,-3.959 -1.106,-7.634 -1.889,-15.289 -2.12,-23.012 -0.072,-2.392 0.205,-4.87 -0.571,-7.228 -5.389,-0.883 -10.678,-2.156 -16.045,-4.358 1.841,4.387 3.607,8.43 5.241,12.526 2.171,5.443 4.571,10.82 5.449,16.686 0.227,1.521 0.365,3.054 0.544,4.581 C -2.648,-3.262 -1.694,-1.311 0,0" /></g><g
           transform="translate(258.7969,533.2827)"
           id="g148"><path
             id="path150"
             style="fill:#912832;fill-opacity:1;fill-rule:evenodd;stroke:none"
             d="m 0,0 c 1.129,-1.977 2.246,-3.961 3.395,-5.927 0.418,-0.718 0.066,-2.938 -0.59,-3.334 -0.513,-0.31 -0.852,0.118 -1.213,0.337 -1.671,1.015 -3.459,1.719 -5.366,2.14 -1.416,0.313 -1.779,-0.019 -1.393,-1.42 0.637,-2.311 1.416,-4.576 2.675,-6.632 0.547,-0.893 0.529,-1.569 -0.389,-2.159 -0.794,-0.51 -1.426,-1.243 -2.476,-0.192 -1.524,1.527 -3.258,2.842 -4.874,4.28 -1.02,0.908 -1.552,0.651 -1.884,-0.606 -0.343,-1.297 -0.196,-2.609 -0.234,-3.913 -0.029,-1.018 -0.156,-1.994 -0.569,-3.339 -1.007,1.765 -1.815,3.223 -2.665,4.658 -0.465,0.783 -1.018,1.512 -1.496,2.288 -0.324,0.527 -0.693,0.923 -1.369,0.761 -0.626,-0.149 -0.677,-0.662 -0.751,-1.192 -0.206,-1.46 -0.495,-2.91 -0.665,-4.374 -0.109,-0.934 -0.503,-1.063 -1.236,-0.632 -1.026,0.604 -2.031,1.235 -2.71,2.337 0.442,0.229 0.856,0.416 1.244,0.648 1.805,1.081 2.261,3.548 0.94,5.189 -0.65,0.806 -1.457,1.407 -2.41,1.865 -0.677,0.326 -1.894,0.21 -1.914,1.134 -0.025,1.17 1.317,1.077 2.081,1.394 3.521,1.458 7.152,2.654 10.101,5.243 0.96,0.842 1.693,1.835 2.476,2.807 0.846,0.647 1.806,0.847 2.862,0.864 2.232,0.034 4.397,-0.329 6.533,-0.922 C -1.121,1.087 -0.392,0.785 0,0" /></g><g
           transform="translate(338.5508,327.2871)"
           id="g152"><path
             id="path154"
             style="fill:#874a8a;fill-opacity:1;fill-rule:evenodd;stroke:none"
             d="m 0,0 c -0.941,3.609 -1.664,7.199 -1.469,10.936 0.432,8.247 4.438,14.941 9.055,21.405 0.609,0.854 1.436,1.089 2.335,1.206 8.431,1.103 16.899,1.544 25.49,1.197 C 34.939,34.588 34.459,34.453 33.997,34.273 26.375,31.299 18.994,27.893 12.711,22.491 6.343,17.016 2.529,10.023 0.467,1.984 0.298,1.326 0.154,0.661 0,0" /></g><g
           transform="translate(258.7969,533.2827)"
           id="g156"><path
             id="path158"
             style="fill:#56252e;fill-opacity:1;fill-rule:evenodd;stroke:none"
             d="m 0,0 c -3.616,1.685 -7.38,2.137 -11.292,1.361 3.753,5.293 6.999,10.911 10.372,16.441 2.386,3.911 4.804,7.457 9.744,8.469 2.164,0.443 4.174,1.635 6.627,2.64 C 13.695,25.328 12.046,22.143 11.008,18.724 9.987,15.358 9.126,11.941 8.307,8.521 8.073,7.547 7.688,7.191 6.719,7.177 5.876,7.165 5.026,6.997 4.199,6.811 2.975,6.536 2.75,5.82 3.585,4.852 4.439,3.862 5.481,3.046 6.183,1.91 6.517,1.37 6.682,0.8 6.375,0.308 6.038,-0.235 5.472,0.114 4.979,0.235 3.822,0.519 2.662,0.805 1.489,0.996 0.761,1.115 -0.088,1.199 0,0" /></g><g
           transform="translate(227.3193,297.5586)"
           id="g160"><path
             id="path162"
             style="fill:#efd7e7;fill-opacity:1;fill-rule:evenodd;stroke:none"
             d="m 0,0 c -0.385,-8.543 0.071,-17.016 1.973,-25.388 0.317,-1.397 1.413,-2.569 1.129,-4.117 -8.568,7.917 -13.143,17.839 -14.801,29.266 -0.736,5.067 -1.295,10.131 -0.934,15.302 C -10.063,8.637 -5.372,4.032 0,0" /></g><g
           transform="translate(189.5791,487.0156)"
           id="g164"><path
             id="path166"
             style="fill:#874a8a;fill-opacity:1;fill-rule:evenodd;stroke:none"
             d="m 0,0 c -1.785,2.666 -2.924,5.647 -4.052,8.612 -3.175,8.343 -5.669,16.892 -6.831,25.762 -0.761,5.797 -1.485,11.637 -1.056,17.492 0.372,5.062 0.715,10.172 2.693,14.963 -0.733,-4.746 -0.969,-9.525 -0.713,-14.314 0.477,-8.924 3.002,-17.361 6.428,-25.537 C -1.723,22.662 0.507,18.545 3.521,14.91 3.847,14.516 4.204,14.155 4.022,13.55 2.674,9.036 1.339,4.518 0,0" /></g><g
           transform="translate(218.3027,537.2593)"
           id="g168"><path
             id="path170"
             style="fill:#ad2139;fill-opacity:1;fill-rule:evenodd;stroke:none"
             d="m 0,0 c 0.277,-3.406 0.5,-6.818 0.871,-10.213 0.089,-0.821 0.014,-1.239 -0.739,-1.611 -1.737,-0.861 -3.451,-1.772 -5.138,-2.726 -0.743,-0.419 -1.123,-0.313 -1.336,0.511 -1.302,5.017 -2.461,10.06 -2.839,15.245 -0.064,0.879 -0.204,1.757 0.778,2.42 0.433,0.293 0.539,1.098 0.754,1.686 1.182,3.241 1.189,3.278 4.492,2.223 C -0.877,6.807 1.387,6.023 3.617,5.158 5.94,4.256 8.314,3.844 10.801,3.902 13.592,3.966 16.056,0.466 15.073,-2.099 14.91,-2.524 14.749,-2.951 14.563,-3.368 13.424,-5.93 11.386,-6.424 9.228,-4.754 6.637,-2.751 4.507,-0.283 2.191,1.997 1.735,2.446 1.375,3.352 0.591,3.032 -0.268,2.682 0.134,1.736 0.068,1.033 0.037,0.693 0.063,0.348 0.063,0.006 Z" /></g><g
           transform="translate(235.1646,528.1211)"
           id="g172"><path
             id="path174"
             style="fill:#b54b4e;fill-opacity:1;fill-rule:evenodd;stroke:none"
             d="m 0,0 c 0.205,0.578 0.456,1.145 0.606,1.737 0.517,2.019 0.027,2.68 -2.017,2.79 4.288,3.316 6.83,7.713 7.871,12.975 0.304,1.531 0.971,2.478 2.415,3.161 3.759,1.776 7.429,3.738 11.154,5.587 1.373,0.681 2.8,1.251 4.474,1.658 -1.191,-1.861 -2.397,-3.713 -3.57,-5.586 C 18.179,17.929 15.359,13.575 12.719,9.115 9.794,4.176 5.286,1.576 0,0" /></g><g
           transform="translate(156.9727,321.8887)"
           id="g176"><path
             id="path178"
             style="fill:#b983b7;fill-opacity:1;fill-rule:evenodd;stroke:none"
             d="m 0,0 c 0.605,-0.043 1.211,-0.088 2.121,-0.153 -2.709,-2.48 -4.363,-5.298 -4.875,-8.728 -0.3,-2.012 -0.69,-4.01 -0.952,-6.025 -0.107,-0.829 -0.411,-1.211 -1.259,-1.26 -2.434,-0.139 -4.857,-0.498 -7.305,-0.325 1.247,6.477 4.105,11.995 9.477,16.042 C -1.912,0.214 -0.937,-0.103 0,0" /></g><g
           transform="translate(128.7129,416.875)"
           id="g180"><path
             id="path182"
             style="fill:#b983b7;fill-opacity:1;fill-rule:evenodd;stroke:none"
             d="m 0,0 c -6.723,-0.687 -9.773,-4.718 -10.315,-11.281 -2.791,2.035 -5.331,4.186 -7.545,6.678 -1.072,1.207 -0.672,2.455 0.951,3.304 C -11.504,1.533 -5.88,1.978 0,0" /></g><g
           transform="translate(288.9707,560.5117)"
           id="g184"><path
             id="path186"
             style="fill:#874a8a;fill-opacity:1;fill-rule:evenodd;stroke:none"
             d="m 0,0 c -0.736,-4.439 -1.444,-8.786 -2.577,-13.045 -0.342,-1.288 -0.279,-3.178 -1.309,-3.655 -1.014,-0.469 -1.938,1.368 -3.106,1.872 -0.052,0.023 -0.101,0.054 -0.147,0.087 -3.442,2.46 -3.564,2.646 -1.296,6.146 2.106,3.249 4.124,6.615 7.383,8.93 0.263,0.187 0.471,0.614 0.836,0.347 C -0.043,0.556 -0.051,0.181 0,0" /></g><g
           transform="translate(220.5151,526.5229)"
           id="g188"><path
             id="path190"
             style="fill:#d29f03;fill-opacity:1;fill-rule:evenodd;stroke:none"
             d="M 0,0 C -0.673,3.902 -0.871,7.628 -0.795,11.886 2.055,8.819 4.62,6.03 7.967,3.846 5.502,2.04 2.72,1.34 0,0" /></g><g
           transform="translate(240.5391,546.6265)"
           id="g192"><path
             id="path194"
             style="fill:#55252e;fill-opacity:1;fill-rule:evenodd;stroke:none"
             d="m 0,0 c -0.751,-4.417 -2.398,-8.09 -5.705,-11.346 0.365,2.941 0.699,5.53 0.999,8.122 0.051,0.434 0.181,0.747 0.56,0.972 C -2.847,-1.48 -1.653,-0.513 0,0" /></g><g
           transform="translate(257.9463,518.0952)"
           id="g196"><path
             id="path198"
             style="fill:#fbfbfb;fill-opacity:1;fill-rule:evenodd;stroke:none"
             d="M 0,0 C -1.489,2.308 -2.448,4.506 -3.015,7.081 -0.927,6.772 0.725,5.834 2.396,4.926 3.104,4.541 2.833,4.131 2.535,3.691 1.738,2.52 0.931,1.354 0,0" /></g><g
           transform="translate(253.2866,514.6436)"
           id="g200"><path
             id="path202"
             style="fill:#fafafa;fill-opacity:1;fill-rule:evenodd;stroke:none"
             d="m 0,0 c -1.654,-0.838 -3.115,-1.276 -4.633,-1.55 -0.809,-0.146 -1.273,-0.049 -1.192,0.984 0.131,1.674 0.072,3.364 0.494,5.227 C -3.512,3.071 -1.819,1.59 0,0" /></g><g
           transform="translate(236.7593,520.1143)"
           id="g204"><path
             id="path206"
             style="fill:#fbfbfb;fill-opacity:1;fill-rule:evenodd;stroke:none"
             d="m 0,0 c -0.111,-1.096 -0.506,-2.076 -1.692,-2.261 -1.098,-0.172 -1.362,0.8 -1.644,1.609 -0.112,0.32 -0.268,0.664 -0.243,0.985 0.072,0.939 -0.752,2.201 0.221,2.742 C -2.397,3.608 -0.03,1.281 0,0" /></g><g
           transform="translate(240.7583,518.5737)"
           id="g208"><path
             id="path210"
             style="fill:#f7f7f7;fill-opacity:1;fill-rule:evenodd;stroke:none"
             d="m 0,0 c 1.458,-1.854 2.512,-3.615 3.401,-5.682 -1.298,-0.252 -2.429,0.17 -3.57,0.223 -0.797,0.037 -0.648,0.633 -0.569,1.128 C -0.523,-2.991 -0.284,-1.655 0,0" /></g><g
           transform="translate(263.2954,527.9224)"
           id="g212"><path
             id="path214"
             style="fill:#f8f8f8;fill-opacity:1;fill-rule:evenodd;stroke:none"
             d="M 0,0 C -1.127,1.705 -2.11,3.198 -2.847,4.848 -2.68,4.925 -2.574,5.022 -2.493,5.004 2.325,3.953 1.817,4.812 0,0" /></g><g
           transform="translate(207.458,545.8774)"
           id="g216"><path
             id="path218"
             style="fill:#efeeee;fill-opacity:1;fill-rule:evenodd;stroke:none"
             d="M 0,0 C 3.288,0.168 3.288,0.168 1.835,-3.452 0.779,-2.504 0.375,-1.279 0,0" /></g><g
           transform="translate(266.5859,539.4341)"
           id="g220"><path
             id="path222"
             style="fill:#efeeee;fill-opacity:1;fill-rule:evenodd;stroke:none"
             d="m 0,0 c -0.23,-1.155 -0.423,-2.126 -0.665,-3.339 -0.866,0.973 -1.596,1.794 -2.524,2.836 C -2.031,-0.32 -1.1,-0.174 0,0" /></g><g
           transform="translate(231.7192,541.6108)"
           id="g224"><path
             id="path226"
             style="fill:#edecec;fill-opacity:1;fill-rule:evenodd;stroke:none"
             d="M 0,0 C 0.958,0.554 1.773,1.025 2.682,1.552 2.888,0.271 2.587,-0.845 2.318,-2.063 1.262,-1.708 0.825,-0.752 0,0" /></g><g
           transform="translate(335.8535,604.249)"
           id="g228"><path
             id="path230"
             style="fill:#211d1b;fill-opacity:1;fill-rule:evenodd;stroke:none"
             d="M 0,0 C 2.67,0.48 5.342,0.472 8.014,0.005 5.342,0.004 2.671,0.002 0,0" /></g><g
           transform="translate(343.4316,603.2559)"
           id="g232"><path
             id="path234"
             style="fill:#211d1b;fill-opacity:1;fill-rule:evenodd;stroke:none"
             d="M 0,0 C -2.271,0.002 -4.543,0.003 -6.812,0.005 -4.541,0.461 -2.271,0.467 0,0" /></g><g
           transform="translate(253.7358,474.9966)"
           id="g236"><path
             id="path238"
             style="fill:#211d1b;fill-opacity:1;fill-rule:evenodd;stroke:none"
             d="M 0,0 C -1.648,-0.424 -3.296,-0.427 -4.945,0 -3.297,0 -1.648,0 0,0" /></g><g
           transform="translate(264.0259,496.6519)"
           id="g240"><path
             id="path242"
             style="fill:#211d1b;fill-opacity:1;fill-rule:evenodd;stroke:none"
             d="M 0,0 C 0.002,1.346 0.004,2.691 0.007,4.037 0.41,2.69 0.425,1.345 0,0" /></g><g
           transform="translate(249.5889,484.8721)"
           id="g244"><path
             id="path246"
             style="fill:#211d1b;fill-opacity:1;fill-rule:evenodd;stroke:none"
             d="M 0,0 C 1.115,-0.002 2.229,-0.004 3.344,-0.006 2.228,-0.398 1.114,-0.409 0,0" /></g><g
           transform="translate(325.9316,417.1719)"
           id="g248"><path
             id="path250"
             style="fill:#211d1b;fill-opacity:1;fill-rule:evenodd;stroke:none"
             d="m 0,0 c -8.154,-0.908 -16.328,-1.637 -24.126,-4.523 -5.281,-1.956 -9.707,-4.993 -13.157,-9.448 -0.333,-0.43 -0.592,-1.126 -1.279,-0.941 -0.623,0.166 -0.692,0.845 -0.808,1.4 -1.015,4.85 -3.516,8.856 -6.954,12.344 -4.02,4.076 -8.328,7.793 -13.258,10.743 -4.525,2.753 -9.039,5.526 -13.578,8.257 -13.673,8.223 -24.147,19.553 -32.117,33.255 -2.181,3.749 -3.698,7.833 -4.559,12.118 -0.139,0.69 -0.578,1.601 0.199,2.033 0.749,0.418 1.198,-0.486 1.614,-0.954 6.32,-7.102 14.393,-11.079 23.517,-13.098 6.681,-1.479 13.443,-1.363 20.251,-0.965 8.079,0.473 15.144,3.461 21.771,7.817 0.191,0.125 0.373,0.264 0.559,0.395 2.733,1.929 2.807,1.974 4.627,-0.992 7.625,-12.429 19.265,-18.841 33.154,-21.011 11.814,-1.846 23.363,0.438 34.519,4.713 13.768,5.275 25.541,13.55 36.115,23.668 2.482,2.375 4.61,5.059 6.602,7.854 0.38,0.532 0.674,1.405 1.475,1.23 0.945,-0.207 0.722,-1.234 0.776,-1.883 0.316,-3.824 0.044,-7.652 -0.327,-11.45 C 74.408,54.319 73.4,48.137 71.01,42.271 66.904,32.204 60.623,23.871 51.753,17.465 41.75,10.242 30.396,6.305 18.602,3.357 12.744,1.894 6.838,0.675 0.795,0.26 0.525,0.242 0.265,0.09 0,0" /></g><g
           transform="translate(402.4414,539.8472)"
           id="g252"><path
             id="path254"
             style="fill:#211d1b;fill-opacity:1;fill-rule:evenodd;stroke:none"
             d="m 0,0 c -0.105,-10.115 -0.796,-20.159 -4.101,-29.833 -5.92,-17.334 -16.94,-30.405 -32.867,-39.434 -7.083,-4.014 -14.548,-6.852 -22.645,-7.762 -8.255,-0.928 -16.504,-1.18 -24.506,1.751 -7.385,2.704 -12.517,7.979 -15.879,14.824 -5.383,10.963 -4.415,21.798 1.948,32.095 5.316,8.601 12.585,15.247 21.159,20.592 11.84,7.38 24.787,12.347 37.59,17.639 6.007,2.482 12.155,4.632 18.1,7.246 5.957,2.62 11.724,5.651 16.49,10.249 0.997,0.962 1.508,0.74 1.928,-0.741 1.057,-3.738 1.666,-7.564 2.008,-11.421 C -0.327,10.15 0.164,5.092 0,0" /></g><g
           transform="translate(249.1899,565.7808)"
           id="g256"><path
             id="path258"
             style="fill:#201613;fill-opacity:1;fill-rule:evenodd;stroke:none"
             d="m 0,0 c -1.284,0.918 -0.219,1.786 0.178,2.5 4.861,8.761 10.924,16.552 18.697,22.951 1.765,1.452 3.592,2.814 5.475,4.104 1.466,-0.303 0.424,-0.948 0.052,-1.127 -1.417,-0.682 -1.218,-1.766 -1.027,-2.992 0.701,-4.494 1.306,-8.999 1.374,-13.562 0.016,-1.1 -0.395,-1.791 -1.229,-2.436 C 18.147,5.273 11.892,3.029 5.494,1.096 3.702,0.555 1.915,-0.057 0,0" /></g><g
           transform="translate(423.6064,434.9917)"
           id="g260"><path
             id="path262"
             style="fill:#221715;fill-opacity:1;fill-rule:evenodd;stroke:none"
             d="m 0,0 c 1,1.112 1.982,2.241 3.003,3.334 4.143,4.438 7.795,9.245 10.943,14.437 3.604,5.944 5.25,12.577 6.869,19.238 1.952,8.033 1.784,16.137 1.264,24.298 C 21.14,76.04 15.29,89.101 8.48,101.836 c -5.319,9.947 -12.017,18.861 -20.458,26.393 -2.808,2.505 -5.757,4.852 -8.64,7.275 -0.244,0.205 -0.633,0.287 -0.648,0.897 2.245,-0.774 3.99,-2.204 5.742,-3.595 11.23,-8.919 19.756,-20.005 26.292,-32.712 C 15.396,91.095 19.69,81.962 21.749,71.982 25.319,54.676 24.366,37.693 17.132,21.417 13.406,13.033 7.751,5.924 0.778,-0.086 0.659,-0.188 0.481,-0.221 0.331,-0.286 0.22,-0.19 0.11,-0.096 0,0" /></g><g
           transform="translate(220.0239,549.8867)"
           id="g264"><path
             id="path266"
             style="fill:#2b1e1e;fill-opacity:1;fill-rule:evenodd;stroke:none"
             d="M 0,0 C -0.398,0.101 -0.435,0.457 -0.138,0.708 1.115,1.771 2.403,2.792 3.694,3.807 3.925,3.989 4.261,4.019 4.442,3.732 4.542,3.573 4.548,3.304 4.5,3.109 4.41,2.754 0.43,-0.019 0,0" /></g><g
           transform="translate(202.2788,554.7036)"
           id="g268"><path
             id="path270"
             style="fill:#2d2022;fill-opacity:1;fill-rule:evenodd;stroke:none"
             d="M 0,0 C 0.134,-0.091 0.397,-0.173 0.484,-0.344 1.043,-1.441 1.905,-2.399 2.06,-3.68 2.067,-3.741 1.733,-3.933 1.683,-3.896 0.65,-3.13 0.149,-1.966 -0.49,-0.91 -0.746,-0.487 -0.601,-0.147 0,0" /></g><g
           transform="translate(272.8936,363.8271)"
           id="g272"><path
             id="path274"
             style="fill:#2b1e1e;fill-opacity:1;fill-rule:evenodd;stroke:none"
             d="M 0,0 C 1.306,0.077 2.355,-0.576 3.462,-1.048 3.734,-1.163 3.936,-1.438 3.815,-1.729 3.691,-2.024 3.354,-2.06 3.087,-1.929 2.004,-1.397 0.847,-0.985 0,0" /></g><g
           transform="translate(273.728,359.4297)"
           id="g276"><path
             id="path278"
             style="fill:#342428;fill-opacity:1;fill-rule:evenodd;stroke:none"
             d="m 0,0 c -0.036,-0.295 -0.114,-0.492 -0.38,-0.543 -0.34,-0.065 -2.134,1.629 -2.136,2.004 -10e-4,0.31 0.269,0.445 0.434,0.375 C -1.177,1.451 -0.594,0.689 0,0" /></g><g
           transform="translate(281.7261,389.3779)"
           id="g280"><path
             id="path282"
             style="fill:#322327;fill-opacity:1;fill-rule:evenodd;stroke:none"
             d="M 0,0 C 1.129,-0.505 2.263,-0.999 3.382,-1.526 3.553,-1.608 3.759,-1.808 3.622,-2.081 3.51,-2.304 3.297,-2.45 3.075,-2.351 1.949,-1.843 0.833,-1.312 -0.279,-0.772 -0.493,-0.669 -0.606,-0.435 -0.465,-0.218 -0.39,-0.104 -0.182,-0.079 0,0" /></g><g
           transform="translate(284.2012,385.4766)"
           id="g284"><path
             id="path286"
             style="fill:#39282d;fill-opacity:1;fill-rule:evenodd;stroke:none"
             d="M 0,0 C -0.06,-0.121 -0.101,-0.293 -0.207,-0.398 -0.509,-0.697 -3.455,0.104 -3.647,0.51 -3.781,0.792 -3.59,1.047 -3.424,1.027 -2.32,0.896 -1.175,0.921 -0.172,0.326 -0.093,0.279 -0.07,0.139 0,0" /></g><g
           transform="translate(297.1372,529.3579)"
           id="g288"><path
             id="path290"
             style="fill:#ab2138;fill-opacity:1;fill-rule:evenodd;stroke:none"
             d="M 0,0 C -0.021,0.763 0.097,1.699 0.862,2.449 1.271,2.849 1.737,2.994 2.265,2.874 2.867,2.736 3.019,2.217 3.07,1.695 3.186,0.52 2.878,-0.585 2.25,-1.554 1.935,-2.038 1.533,-2.74 0.786,-2.488 0.111,-2.259 0.033,-1.554 0.001,-0.913 -0.01,-0.685 0,-0.457 0,0" /></g><g
           transform="translate(285.3428,529.9336)"
           id="g292"><path
             id="path294"
             style="fill:#aa2138;fill-opacity:1;fill-rule:evenodd;stroke:none"
             d="M 0,0 C -0.029,-0.397 -0.056,-0.794 -0.089,-1.19 -0.138,-1.796 0.023,-2.576 -0.8,-2.737 -1.626,-2.9 -2.029,-2.26 -2.271,-1.586 c -0.345,0.967 -0.567,1.975 -0.548,3.003 0.011,0.64 0.222,1.316 0.914,1.506 C -1.147,3.132 -0.792,2.484 -0.477,1.95 -0.127,1.357 0.042,0.694 0,0" /></g><g
           transform="translate(326.041,418.5117)"
           id="g296"><path
             id="path298"
             style="fill:#45424e;fill-opacity:1;fill-rule:evenodd;stroke:none"
             d="m 0,0 c -2.986,-0.379 -5.662,-0.707 -8.337,-1.059 -8.329,-1.095 -16.541,-2.615 -23.693,-7.421 -2.314,-1.555 -4.373,-3.449 -6.205,-5.93 -2.839,10.982 -11.427,16.851 -19.74,23.234 7.917,4.057 16.243,5.764 24.944,5.121 C -20.637,13.028 -9.416,9.072 0,0" /></g><g
           transform="translate(390.2656,550.4565)"
           id="g300"><path
             id="path302"
             style="fill:#ad2139;fill-opacity:1;fill-rule:evenodd;stroke:none"
             d="m 0,0 c 1.154,-13.547 0.937,-26.618 -4.697,-39.025 -2.397,-5.276 -5.496,-10.138 -9.233,-14.551 -5.377,-6.353 -11.457,-11.955 -18.756,-16.056 -7.82,-4.393 -16.131,-7.138 -25.246,-6.842 -7.685,0.249 -18.256,6.595 -19.959,16.605 -1.308,7.698 0.776,14.288 5.727,20.315 7.433,9.044 17.16,14.756 27.502,19.573 12.658,5.896 25.87,10.523 38.492,16.519 C -4.117,-2.487 -2.121,-1.423 0,0" /></g><g
           transform="translate(272.1216,585.3716)"
           id="g304"><path
             id="path306"
             style="fill:#fefefe;fill-opacity:1;fill-rule:evenodd;stroke:none"
             d="m 0,0 c 0.217,-2.438 0.415,-4.876 0.662,-7.31 0.091,-0.896 -0.23,-1.476 -0.956,-2 -1.661,-1.198 -3.319,-2.389 -5.344,-3.311 -0.617,2.683 -1.308,5.282 -2.206,7.818 -0.177,0.689 0.31,1.05 0.736,1.408 1.744,1.467 3.597,2.791 5.461,4.102 C -0.703,1.371 -0.111,1.258 0,0" /></g><g
           transform="translate(272.1216,585.3716)"
           id="g308"><path
             id="path310"
             style="fill:#d2d3d2;fill-opacity:1;fill-rule:evenodd;stroke:none"
             d="M 0,0 C -0.392,0.134 -0.196,1.255 -0.999,0.652 -3.333,-1.1 -5.9,-2.561 -7.844,-4.803 c -0.132,0.24 -0.288,0.471 -0.394,0.722 -1.364,3.25 -1.387,3.278 1.176,5.641 1.91,1.76 3.895,3.438 6.041,5.323 C -0.397,4.453 -0.161,2.233 0,0" /></g><g
           transform="translate(249.8437,566.8296)"
           id="g312"><path
             id="path314"
             style="fill:#f9f9f9;fill-opacity:1;fill-rule:evenodd;stroke:none"
             d="M 0,0 C 1.288,2.136 2.323,3.853 3.445,5.713 4.476,4.542 4.827,3.289 5.332,2.112 5.579,1.535 5.26,1.419 4.844,1.307 3.387,0.913 1.93,0.521 0,0" /></g><g
           transform="translate(340.041,492.1748)"
           id="g316"><path
             id="path318"
             style="fill:#231713;fill-opacity:1;fill-rule:evenodd;stroke:none"
             d="m 0,0 c -0.146,1.796 0.199,3.535 0.758,5.214 0.42,1.263 0.107,1.386 -1.055,1.027 -2.24,-0.69 -4.496,-0.564 -6.734,0.121 -2.336,0.716 -3.61,2.363 -3.944,4.689 -0.498,3.481 0.518,6.527 2.885,9.146 2.986,3.303 6.673,5.445 10.838,6.928 11.615,4.139 23.057,8.69 33.815,14.792 1.137,0.646 2.193,1.434 3.3,2.136 0.366,0.232 0.748,0.626 1.221,0.22 0.349,-0.298 0.269,-0.693 0.201,-1.108 C 39.611,32.842 36.647,22.992 31.16,13.969 26.82,6.83 21.344,0.834 14.441,-3.873 11.893,-5.612 9.073,-6.626 6.062,-7.128 2.928,-7.65 0.304,-5.354 0.01,-1.882 -0.043,-1.259 0.002,-0.627 0,0" /></g><g
           transform="translate(379.9316,534.5278)"
           id="g320"><path
             id="path322"
             style="fill:#d29f03;fill-opacity:1;fill-rule:evenodd;stroke:none"
             d="m 0,0 c -1.068,-6.139 -2.357,-11.917 -4.62,-17.418 -4.283,-10.409 -10.276,-19.578 -19.484,-26.372 -2.644,-1.95 -5.408,-3.583 -8.677,-4.259 -3.632,-0.75 -5.44,0.508 -5.858,4.169 -0.302,2.668 0.232,5.212 1.061,7.728 0.185,0.559 0.744,1.198 0.248,1.762 -0.56,0.637 -1.182,-0.044 -1.703,-0.236 -2.164,-0.803 -4.385,-0.809 -6.592,-0.465 -3.176,0.495 -4.813,3.34 -4.102,6.889 0.439,2.189 1.485,4.054 3.032,5.65 2.418,2.495 5.203,4.411 8.482,5.626 10.695,3.961 21.433,7.824 31.49,13.295 2.147,1.167 4.3,2.322 6.723,3.631" /></g></g></g></g></svg>